<?xml version="1.0" encoding="UTF-8"?> <svg xmlns="http://www.w3.org/2000/svg" viewBox="0 0 755.38 565.28"><g id="Layer_2" data-name="Layer 2"><path d="M168.41,362.28s-48.86,135.63,111,160.81S575,535.91,615.44,423.54s5.67-222.68-75.32-238.31S187.84,87.69,168.41,362.28Z" fill="#dde6ef" opacity="0.49"></path><path d="M384,208.69a.62.62,0,0,1-.23,0l-6.7-2.23a.71.71,0,1,1,.45-1.35l6.7,2.24a.71.71,0,0,1,.45.89A.71.71,0,0,1,384,208.69Zm-6.07-23-.15,0a.69.69,0,0,1-.54-.84,38.72,38.72,0,0,0,.66-3.9.71.71,0,0,1,.77-.63.72.72,0,0,1,.64.77,40.09,40.09,0,0,1-.69,4.06A.72.72,0,0,1,377.91,185.69Z" fill="#35445a"></path><path d="M439.06,286.09a.71.71,0,0,1,0-1.41c2.41,0,4.78-.08,7-.19a.68.68,0,0,1,.74.67.71.71,0,0,1-.67.74c-2.27.11-4.66.18-7.09.19Zm-28.22-1.4h-.07c-2.3-.22-4.64-.45-7-.71a.71.71,0,0,1,.16-1.41c2.39.26,4.73.49,7,.71a.71.71,0,0,1-.06,1.41Zm63-3.82a.72.72,0,0,1-.67-.46.71.71,0,0,1,.42-.91,55.05,55.05,0,0,0,6.37-2.83.7.7,0,0,1,.95.3.71.71,0,0,1-.3,1,57,57,0,0,1-6.53,2.89A.69.69,0,0,1,473.82,280.87Zm-98.06-.5h-.11l-1.38-.21c-1.92-.28-3.81-.62-5.62-1a.71.71,0,0,1,.3-1.38c1.77.38,3.63.72,5.52,1l1.39.21a.7.7,0,0,1,.6.8A.72.72,0,0,1,375.76,280.37Zm-32.3-12.77a.66.66,0,0,1-.44-.16,52.87,52.87,0,0,1-5.27-4.78.7.7,0,1,1,1-1,53.9,53.9,0,0,0,5.14,4.66.71.71,0,0,1,.11,1A.69.69,0,0,1,343.46,267.6ZM500.71,259a.67.67,0,0,1-.38-.11.71.71,0,0,1-.21-1c1.23-1.87,2.43-3.9,3.57-6a.71.71,0,0,1,1.25.66c-1.17,2.17-2.39,4.23-3.63,6.13A.72.72,0,0,1,500.71,259ZM323.58,239a.69.69,0,0,1-.65-.45c-.83-2.12-1.62-4.38-2.36-6.71a.71.71,0,1,1,1.35-.43c.73,2.3,1.51,4.53,2.32,6.62a.71.71,0,0,1-.4.92A.75.75,0,0,1,323.58,239Zm191.16-12.3-.2,0a.71.71,0,0,1-.48-.88c.65-2.18,1.28-4.46,1.87-6.79a.72.72,0,0,1,.86-.51.71.71,0,0,1,.51.87c-.6,2.34-1.23,4.64-1.88,6.83A.7.7,0,0,1,514.74,226.7ZM315,204.74a.71.71,0,0,1-.7-.59c-.38-2.33-.74-4.66-1.09-7a.71.71,0,0,1,.6-.8.7.7,0,0,1,.8.6q.53,3.5,1.09,7a.7.7,0,0,1-.59.81Zm207.53-12.5h-.14a.72.72,0,0,1-.56-.84q.7-3.51,1.44-6.93a.71.71,0,0,1,.84-.54.7.7,0,0,1,.54.84c-.49,2.27-1,4.58-1.43,6.91A.7.7,0,0,1,522.54,192.24Zm-394-6.84a.74.74,0,0,1-.29-.05.72.72,0,0,1-.36-.94c0-.1,1.09-2.46,3.22-6.41a.7.7,0,1,1,1.24.67c-2.1,3.89-3.16,6.29-3.17,6.31A.68.68,0,0,1,128.57,185.4ZM309.9,169.71a.72.72,0,0,1-.7-.6q-.56-3.53-1.18-7a.71.71,0,0,1,.57-.82.73.73,0,0,1,.83.57q.61,3.45,1.18,7a.7.7,0,0,1-.59.81Zm222.52-11.3a.63.63,0,0,1-.3-.07.69.69,0,0,1-.34-.94c1-2.18,2.18-4.29,3.38-6.27a.7.7,0,0,1,1-.23.71.71,0,0,1,.24,1,67.48,67.48,0,0,0-3.31,6.14A.72.72,0,0,1,532.42,158.41Zm-385.21-3.09a.67.67,0,0,1-.43-.14.72.72,0,0,1-.13-1c1.44-1.87,2.94-3.73,4.45-5.53a.71.71,0,1,1,1.09.91c-1.5,1.78-3,3.63-4.42,5.49A.71.71,0,0,1,147.21,155.32Zm154-19.81a.71.71,0,0,1-.65-.43,63,63,0,0,0-3.06-6.27.71.71,0,1,1,1.23-.69,64.77,64.77,0,0,1,3.14,6.41.71.71,0,0,1-.38.92A.67.67,0,0,1,301.21,135.51Zm254.22-3.16a.71.71,0,0,1-.38-1.31c1.94-1.23,4-2.42,6.17-3.53a.71.71,0,0,1,.64,1.26c-2.11,1.09-4.15,2.25-6.05,3.47A.76.76,0,0,1,555.43,132.35Zm-383.72-2.44a.71.71,0,0,1-.45-1.26c1.85-1.5,3.74-3,5.63-4.34a.71.71,0,1,1,.84,1.14c-1.87,1.37-3.75,2.81-5.57,4.3A.69.69,0,0,1,171.71,129.91Zm416.39-10.4a.71.71,0,0,1-.16-1.4c2.23-.52,4.56-1,6.93-1.47a.72.72,0,0,1,.83.56.71.71,0,0,1-.57.83c-2.34.45-4.66.94-6.87,1.46Zm-386.2-7.72a.71.71,0,0,1-.65-.44.71.71,0,0,1,.39-.92c2.19-.89,4.43-1.71,6.67-2.45a.72.72,0,0,1,.9.45.71.71,0,0,1-.45.89c-2.22.73-4.43,1.54-6.59,2.42A.86.86,0,0,1,201.9,111.79Zm76-1.34a.66.66,0,0,1-.27-.06,43.75,43.75,0,0,0-5.56-1.89l-1-.27a.71.71,0,1,1,.36-1.37l1,.27a46.65,46.65,0,0,1,5.74,2,.69.69,0,0,1,.37.92A.7.7,0,0,1,277.89,110.45Zm-41.65-6.13a.71.71,0,0,1,0-1.42c2.34-.1,4.72-.13,7.11-.07a.7.7,0,0,1,.69.72.78.78,0,0,1-.72.69c-2.36,0-4.71,0-7,.08Z" fill="#35445a"></path><path d="M301,325.87,280.43,397.2l-88.32-47.94-12.59,21.58s63.33,71.94,109.9,79.14S348,357.69,348,357.69l-29.67-42.27Z" fill="#9ebadc"></path><path d="M311.6,423.83l6.62,104.93S346.5,538,402.6,539c49.35.87,54.71-7.21,54.71-7.21l3.41-71S344,486.76,311.6,423.83Z" fill="#35445a"></path><path d="M318.9,528.23c3.86,1.16,32.18,9.12,83.71,10,44.45.79,53-5.8,54-6.79l3.35-69.8a276,276,0,0,1-61.71,4.95c-42.15-1.75-71.71-15.44-85.75-39.66Z" fill="#00146b"></path><path d="M388.55,239.76s-42.35-14-57.39-2.79-27.63,43.58-20.43,94.11c4.07,28.64,2.86,62.6,1,86.66-1.9,25.25,10.65,49.6,32.71,62a106.49,106.49,0,0,0,38.6,13,166.23,166.23,0,0,0,46.56-.07,37.14,37.14,0,0,0,31.08-31.93c3.8-28.65,9.18-76.55,7.38-106.5C465.41,309.33,388.55,239.76,388.55,239.76Z" fill="#9ebadc"></path><path d="M377.08,442.66s-6.8,26.58-32.6,37.12c0,0,50.94,39.67,83,22.69s33.24-41.68,33.24-41.68l-29.48-31.3Z" fill="#000f44" opacity="0.15"></path><path d="M419.05,250s27.28,12.59,50.06,31.17,20.39,75.54,18,107.32-11.39,77.94-42,78.54-64.27-7.66-114-74L348,376.22s48.62,26,73.8,36.2c0,0,6.59-37.77-2.7-67.75" fill="#9ebadc"></path><path d="M424.75,189.39s-6,36-5.7,60.56,1.5,43.76-30.87,38.37,2.39-30-4.2-59.36S393,173.81,424.75,189.39Z" fill="#ecb5a4"></path><path d="M381.73,253.53s33.34,14.91,39.77-40.68l3.25-21.13-20.84,7.8L392.82,209l-8.1,30.73S382.81,250.41,381.73,253.53Z" fill="#c9826f" opacity="0.44"></path><path d="M358.8,154.32s-16.19,86.33,24.28,85.44,45-68.35,45-68.35,9.9-11.69,0-37.77S360.37,97.55,358.8,154.32Z" fill="#ecb5a4"></path><path d="M358.87,152.53l-1.18,8.87s36,6.76,65-6.18Z" fill="#c9826f" opacity="0.44"></path><path d="M350.7,121.05s-18.88,32.37,23.39,34.17,48.56,0,48.56,0a152.4,152.4,0,0,0,0,44.29,96.69,96.69,0,0,0,24.28-39.23c.2-.62.39-1.24.57-1.85,6.06-20.55-3.9-42.41-23-52.05C403.36,95.76,370.73,87.3,350.7,121.05Z" fill="#31353a"></path><path d="M419.05,181.9s6.9-17.09,17.69-8.09,6.89,26.21-14.09,25.7" fill="#ecb5a4"></path><polygon points="289.01 367.47 280.43 397.2 312.15 412.42 313.46 376.05 311.6 358.48 289.01 367.47" fill="#35445a" opacity="0.22"></polygon><rect x="273.56" y="290.01" width="49.16" height="82.14" rx="5.11" transform="translate(-53.37 57.32) rotate(-10.08)" fill="#fff"></rect><rect x="268.25" y="290.96" width="49.16" height="82.14" rx="5.11" transform="translate(-53.61 56.41) rotate(-10.08)" fill="#00146b"></rect><path d="M281.66,376.32a7.93,7.93,0,0,1-7.8-6.54L262,303.13a7.91,7.91,0,0,1,6.41-9.19l34.19-6.08a7.92,7.92,0,0,1,9.19,6.41l11.85,66.65a7.85,7.85,0,0,1-1.3,5.93,7.94,7.94,0,0,1-5.11,3.27h0l-34.19,6.08A8.16,8.16,0,0,1,281.66,376.32ZM304,289.15a6.27,6.27,0,0,0-1.14.1l-34.19,6.08a6.5,6.5,0,0,0-5.27,7.55l11.85,66.65a6.53,6.53,0,0,0,7.55,5.27L317,368.72a6.5,6.5,0,0,0,5.27-7.55l-11.85-66.65A6.53,6.53,0,0,0,304,289.15Zm13.11,80.27h0Z" fill="#35445a"></path><circle cx="276.74" cy="311.75" r="4.5" fill="#fff"></circle><ellipse cx="396.57" cy="177.4" rx="3.3" ry="4.95" fill="#31353a"></ellipse><ellipse cx="368.54" cy="174.56" rx="3.3" ry="4.95" fill="#31353a"></ellipse><path d="M388,222.14a20.28,20.28,0,0,1-6.53-1.06.71.71,0,0,1,.5-1.32c.06,0,6.7,2.41,12.81-.49,3.84-1.82,6.69-5.35,8.46-10.47a.7.7,0,1,1,1.33.46c-1.9,5.5-5,9.31-9.2,11.3A17.18,17.18,0,0,1,388,222.14Z" fill="#31353a"></path><path d="M348,376.22s-17.39-36.57-37.77-34.17,3.59,41.36,21,51Z" fill="#ecb5a4"></path><path d="M192.11,349.26s-2-31.89-9.19-33c-2.88-.44-4.42,1.86-5.22,4.77a19.92,19.92,0,0,1-15.58,14.52,47,47,0,0,1-15.57.38c-14.79-2.4-18.78,0-18,10.39.71,9.28,12.89,16.69,29.72,17.29A87.63,87.63,0,0,1,175.11,366l6.37,1.5Z" fill="#ecb5a4"></path><circle cx="110.69" cy="259.87" r="55.86" fill="#55b84e"></circle><path d="M118.9,247.52a6.47,6.47,0,0,0-2.79-4.85,10.82,10.82,0,0,0-6.39-1.74,12.27,12.27,0,0,0-4.73.83,7,7,0,0,0-3,2.26,5.44,5.44,0,0,0-1.07,3.26,4.86,4.86,0,0,0,.7,2.64,6.05,6.05,0,0,0,1.91,1.89,13.39,13.39,0,0,0,2.69,1.29,28.8,28.8,0,0,0,3,.88l4.56,1.14a31.73,31.73,0,0,1,5.31,1.74,18.64,18.64,0,0,1,4.59,2.75,12.34,12.34,0,0,1,3.22,4,12.12,12.12,0,0,1,1.19,5.51,13.15,13.15,0,0,1-2.19,7.53,14.36,14.36,0,0,1-6.31,5.06,24.66,24.66,0,0,1-10,1.82,25.27,25.27,0,0,1-9.85-1.76,14.59,14.59,0,0,1-6.51-5.14,15.1,15.1,0,0,1-2.53-8.22h8.67a7.36,7.36,0,0,0,1.57,4.23,8.23,8.23,0,0,0,3.6,2.52,14,14,0,0,0,5,.83,13.52,13.52,0,0,0,5-.87,7.92,7.92,0,0,0,3.41-2.42,5.79,5.79,0,0,0,1.26-3.65,4.66,4.66,0,0,0-1.12-3.15,8.34,8.34,0,0,0-3-2.09,31.93,31.93,0,0,0-4.58-1.51L105,260.9a22.12,22.12,0,0,1-9.5-4.7A10.75,10.75,0,0,1,92,247.82a12.52,12.52,0,0,1,2.34-7.53,15.48,15.48,0,0,1,6.38-5,22.46,22.46,0,0,1,9.15-1.79,21.65,21.65,0,0,1,9.09,1.79,15,15,0,0,1,6.15,5,12.68,12.68,0,0,1,2.3,7.29Zm-12,41.37.38-60.84h5L112,288.89Z" fill="#fff"></path><path d="M392.82,399.19s7.82-19,7.05-46.06S415.77,319,426.58,332s21.67,54.78,8.58,85.92Z" fill="#000f44" opacity="0.15"></path><path d="M383.33,205.84a.74.74,0,0,1-.25-.05L372.72,202a.71.71,0,0,1-.28-1.14c4.54-5,7-19.78,7-19.93a.71.71,0,0,1,.81-.59.72.72,0,0,1,.58.82c-.1.59-2.34,14-6.73,19.86l9.43,3.49a.7.7,0,0,1,.42.9A.72.72,0,0,1,383.33,205.84Z" fill="#31353a"></path><path d="M128.57,346.3s11.19,10.54,31.72,6.49,27.11,4.54,27.11,4.54l-5.92,10.14s-9.27-2.35-26.76-4.12C154.72,363.35,132.41,360.76,128.57,346.3Z" fill="#c9826f" opacity="0.44"></path><polygon points="605.7 73.86 641.31 131.55 707.58 81.83 605.7 73.86" fill="#9ebadc"></polygon><polygon points="617.57 93.1 707.58 81.83 626.02 106.79 621.11 125.21 617.57 93.1" fill="#fff"></polygon><polygon points="617.57 93.1 707.58 81.83 626.02 106.79 621.11 125.21 617.57 93.1" fill="#6a8aaa"></polygon><g opacity="0.45"><polygon points="621.11 125.21 634.43 120.41 626.02 106.79 621.11 125.21" fill="#9ebadc"></polygon></g><rect x="37.96" y="220.41" width="11.01" height="1.41" transform="translate(-44.83 13.79) rotate(-11.95)" fill="#35445a"></rect><rect x="45.74" y="200.47" width="1.41" height="11.01" transform="translate(-153.32 137.59) rotate(-58.39)" fill="#35445a"></rect><rect x="60.6" y="193.38" width="1.41" height="11.01" transform="translate(-12.03 4.11) rotate(-3.5)" fill="#35445a"></rect></g></svg> 