<?xml version="1.0" encoding="UTF-8"?> <!-- Generator: Adobe Illustrator 24.3.0, SVG Export Plug-In . SVG Version: 6.00 Build 0) --> <svg xmlns="http://www.w3.org/2000/svg" xmlns:xlink="http://www.w3.org/1999/xlink" version="1.1" id="Layer_1" x="0px" y="0px" viewBox="0 0 125 125" style="enable-background:new 0 0 125 125;" xml:space="preserve"> <style type="text/css"> .st0{fill:#E6E9ED;} .st1{fill:#FFFFFF;} .st2{opacity:0.38;} .st3{fill:none;stroke:#53B056;stroke-width:2;stroke-miterlimit:10;} .st4{fill:#35445A;} .st5{fill:none;stroke:#1DA1F2;stroke-width:2;stroke-miterlimit:10;} .st6{fill:none;stroke:#35445A;stroke-width:2;stroke-linecap:round;stroke-linejoin:round;stroke-miterlimit:10;} .st7{fill:#FFFFFF;stroke:#35445A;stroke-width:2;stroke-linecap:round;stroke-linejoin:round;stroke-miterlimit:10;} .st8{fill:#EF7777;} .st9{fill:#55B84E;} .st10{fill:none;stroke:#FFFFFF;stroke-width:2;stroke-miterlimit:10;} .st11{opacity:0.54;fill:#FFFFFF;} .st12{fill:#8FB0D8;} .st13{opacity:0.49;} .st14{opacity:0.3;fill:#55B84E;} </style> <circle class="st0" cx="62.5" cy="62.5" r="62.5"></circle> <g> <path d="M76.9,11.1H45.3c-4,0-7.2,3.8-7.2,8.5v88.3c0,3.6,2.5,6.6,5.6,6.6h34.8c3.1,0,5.6-3,5.6-6.6V19.6 C84.1,14.9,80.9,11.1,76.9,11.1z M81.7,105.2c0,3.6-2.5,6.6-5.6,6.6H46.5c-3.1,0-5.6-3-5.6-6.6V20.1c0-3.6,2.5-6.6,5.6-6.6h3.6 c0.1,0,0.3,0.1,0.3,0.2c1,2,3,2.2,5.4,2.2h10.6c2.3,0,4.4-0.3,5.4-2.2c0.1-0.1,0.2-0.2,0.3-0.2h4c3.1,0,5.6,3,5.6,6.6V105.2z"></path> <g> <path class="st1" d="M78.2,15.2H48.6c-3.1,0-5.6,3-5.6,6.6v84c0,3.6,2.5,6.6,5.6,6.6h29.5c3.1,0,5.6-3,5.6-6.6v-84 C83.8,18.2,81.3,15.2,78.2,15.2z"></path> <path class="st1" d="M83.9,42.3h-41V15.8c0-2,1.6-3.6,3.6-3.6h33.7c2,0,3.6,1.6,3.6,3.6V42.3z"></path> <path class="st4" d="M79,10.7H47.4c-4,0-7.2,3.8-7.2,8.5v88.3c0,3.6,2.5,6.6,5.6,6.6h34.8c3.1,0,5.6-3,5.6-6.6V19.2 C86.2,14.5,83,10.7,79,10.7z M83.8,104.8c0,3.6-2.5,6.6-5.6,6.6H48.6c-3.1,0-5.6-3-5.6-6.6V19.7c0-3.6,2.5-6.6,5.6-6.6h3.6 c0.1,0,0.3,0.1,0.3,0.2c1,2,3,2.2,5.4,2.2h10.6c2.3,0,4.4-0.3,5.4-2.2c0.1-0.1,0.2-0.2,0.3-0.2h4c3.1,0,5.6,3,5.6,6.6V104.8z"></path> </g> </g> <g> <line class="st5" x1="112.1" y1="36.2" x2="118.4" y2="34.1"></line> <line class="st5" x1="109.2" y1="32.7" x2="110.6" y2="28.4"></line> </g> <g> <path class="st7" d="M105.8,71.7H51.8c-1.9,0-3.4-1.5-3.4-3.4V38.7c0-1.9,1.5-3.4,3.4-3.4h54.1c1.9,0,3.4,1.5,3.4,3.4v29.5 C109.2,70.2,107.7,71.7,105.8,71.7z"></path> <g> <path class="st4" d="M93.8,46.1h-4.1c-1.1,0-2.2-0.6-2.8-1.6l-1-1.9c-0.5-1-1.6-1.6-2.8-1.6h-8.5c-1.1,0-2.1,0.6-2.7,1.5l-1.4,2.2 c-0.6,0.9-1.6,1.5-2.7,1.5h-4.2c-1.1,0-1.9,0.9-1.9,1.9v16.4c0,1.1,0.9,1.9,1.9,1.9h30.1c1.1,0,1.9-0.9,1.9-1.9V48.1 C95.7,47,94.9,46.1,93.8,46.1z"></path> <path class="st4" d="M67.3,41.9h-2.5c-0.6,0-1.1,0.5-1.1,1.1v1.6h4.6v-1.6C68.4,42.3,67.9,41.9,67.3,41.9z"></path> <circle class="st12" cx="88.4" cy="48.7" r="1.1"></circle> <g> <path class="st12" d="M78.8,63.8c-4.3,0-7.8-3.5-7.8-7.8s3.5-7.8,7.8-7.8c4.3,0,7.8,3.5,7.8,7.8S83.1,63.8,78.8,63.8z M78.8,49.7 c-3.5,0-6.3,2.8-6.3,6.3s2.8,6.3,6.3,6.3s6.3-2.8,6.3-6.3S82.3,49.7,78.8,49.7z"></path> </g> </g> </g> <circle class="st14" cx="56.7" cy="52.2" r="6"></circle> <g> <path class="st1" d="M14.6,102.8c-1.1-1.6,0.6-18.6,3.6-22.6s7-4,7-4c2-1,6,0,6,0c2-2,8,0,8,0s4-4,7-10s7-18,11-16s-2,15-4,23 s-3,17-3,17s3-2,6-6s9-6,11-4s-10.4,14.6-13,19c-3,5-6.7,11.4-13,16c-3.5,2.6-3.9,4.6-3.9,4.6S22,114,14.6,102.8z"></path> <path class="st6" d="M49.8,92.3c0,0,0.3-3,1.9-11.6"></path> <path class="st6" d="M14.7,101.9c1-9,0.5-17.7,3.5-21.7s7-4,7-4c2-1,6,0,6,0c2-2,8,0,8,0s4-4,7-10s7-18,11-16s-2,15-4,23 s-3,17-3,17s3-2,6-6s9-6,11-4s-10.4,14.6-13,19c-3,5-7,11-13,16c0,0-2.2,1.8-3.5,3.7"></path> </g> </svg> 