<?xml version="1.0" encoding="UTF-8"?> <!-- Generator: Adobe Illustrator 24.3.0, SVG Export Plug-In . SVG Version: 6.00 Build 0) --> <svg xmlns="http://www.w3.org/2000/svg" xmlns:xlink="http://www.w3.org/1999/xlink" version="1.1" id="Layer_1" x="0px" y="0px" viewBox="0 0 125 125" style="enable-background:new 0 0 125 125;" xml:space="preserve"> <style type="text/css"> .st0{fill:#E6E9ED;} .st1{fill:#FFFFFF;} .st2{opacity:0.38;} .st3{fill:none;stroke:#53B056;stroke-width:2;stroke-miterlimit:10;} .st4{fill:#35445A;} .st5{fill:none;stroke:#1DA1F2;stroke-width:2;stroke-miterlimit:10;} .st6{fill:none;stroke:#35445A;stroke-width:2;stroke-linecap:round;stroke-linejoin:round;stroke-miterlimit:10;} .st7{fill:#FFFFFF;stroke:#35445A;stroke-width:2;stroke-linecap:round;stroke-linejoin:round;stroke-miterlimit:10;} .st8{fill:#EF7777;} .st9{fill:#55B84E;} .st10{fill:none;stroke:#FFFFFF;stroke-width:2;stroke-miterlimit:10;} .st11{opacity:0.54;fill:#FFFFFF;} .st12{fill:#8FB0D8;} .st13{opacity:0.49;} .st14{opacity:0.3;fill:#55B84E;} </style> <circle class="st0" cx="62.5" cy="62.5" r="62.5"></circle> <g> <path d="M76.9,11.1H45.3c-4,0-7.2,3.8-7.2,8.5v88.3c0,3.6,2.5,6.6,5.6,6.6h34.8c3.1,0,5.6-3,5.6-6.6V19.6 C84.1,14.9,80.9,11.1,76.9,11.1z M81.7,105.2c0,3.6-2.5,6.6-5.6,6.6H46.5c-3.1,0-5.6-3-5.6-6.6V20.1c0-3.6,2.5-6.6,5.6-6.6h3.6 c0.1,0,0.3,0.1,0.3,0.2c1,2,3,2.2,5.4,2.2h10.6c2.3,0,4.4-0.3,5.4-2.2c0.1-0.1,0.2-0.2,0.3-0.2h4c3.1,0,5.6,3,5.6,6.6V105.2z"></path> <g> <path class="st1" d="M78.2,15.2H48.6c-3.1,0-5.6,3-5.6,6.6v84c0,3.6,2.5,6.6,5.6,6.6h29.5c3.1,0,5.6-3,5.6-6.6v-84 C83.8,18.2,81.3,15.2,78.2,15.2z"></path> <path class="st1" d="M83.9,42.3h-41V15.8c0-2,1.6-3.6,3.6-3.6h33.7c2,0,3.6,1.6,3.6,3.6V42.3z"></path> <path class="st4" d="M79,10.7H47.4c-4,0-7.2,3.8-7.2,8.5v88.3c0,3.6,2.5,6.6,5.6,6.6h34.8c3.1,0,5.6-3,5.6-6.6V19.2 C86.2,14.5,83,10.7,79,10.7z M83.8,104.8c0,3.6-2.5,6.6-5.6,6.6H48.6c-3.1,0-5.6-3-5.6-6.6V19.7c0-3.6,2.5-6.6,5.6-6.6h3.6 c0.1,0,0.3,0.1,0.3,0.2c1,2,3,2.2,5.4,2.2h10.6c2.3,0,4.4-0.3,5.4-2.2c0.1-0.1,0.2-0.2,0.3-0.2h4c3.1,0,5.6,3,5.6,6.6V104.8z"></path> </g> </g> <g> <path class="st9" d="M86.8,70.4H38.6c-0.7,0-1.3-0.6-1.3-1.3V35.4c0-0.7,0.6-1.3,1.3-1.3h48.3c0.7,0,1.3,0.6,1.3,1.3v33.7 C88.2,69.8,87.6,70.4,86.8,70.4z"></path> <g> <path class="st1" d="M61.7,64.6v-3c-1.8,0-3.6-0.6-4.6-1.3l0.7-2c1.1,0.7,2.7,1.3,4.3,1.3c2.1,0,3.6-1.2,3.6-3 c0-1.7-1.2-2.7-3.4-3.6c-3.1-1.2-5-2.6-5-5.2c0-2.5,1.8-4.4,4.6-4.9v-3.1h1.9v2.9c1.8,0.1,3,0.5,3.9,1.1l-0.8,2 c-0.6-0.4-1.9-1-3.8-1c-2.3,0-3.2,1.4-3.2,2.6c0,1.6,1.1,2.4,3.7,3.4c3.1,1.3,4.7,2.8,4.7,5.5c0,2.4-1.7,4.6-4.8,5.1v3.1H61.7z"></path> </g> </g> <g class="st13"> <path class="st9" d="M120.4,72.6H94.2c-0.7,0-1.3-0.6-1.3-1.3v-18c0-0.7,0.6-1.3,1.3-1.3h26.3c0.7,0,1.3,0.6,1.3,1.3v18 C121.8,72,121.2,72.6,120.4,72.6z"></path> <g> <path class="st1" d="M106.7,69.3v-1.7c-1,0-2-0.3-2.6-0.8l0.4-1.1c0.6,0.4,1.5,0.7,2.5,0.7c1.2,0,2-0.7,2-1.7c0-0.9-0.7-1.5-1.9-2 c-1.7-0.7-2.8-1.5-2.8-3c0-1.4,1-2.5,2.6-2.8v-1.7h1.1v1.7c1,0,1.7,0.3,2.2,0.6l-0.4,1.1c-0.4-0.2-1.1-0.6-2.2-0.6 c-1.3,0-1.8,0.8-1.8,1.5c0,0.9,0.6,1.3,2.1,2c1.8,0.7,2.7,1.6,2.7,3.1c0,1.4-0.9,2.6-2.7,2.9v1.8H106.7z"></path> </g> </g> <g class="st13"> <path class="st9" d="M32.5,72.6H6.2c-0.7,0-1.3-0.6-1.3-1.3v-18c0-0.7,0.6-1.3,1.3-1.3h26.3c0.7,0,1.3,0.6,1.3,1.3v18 C33.8,72,33.2,72.6,32.5,72.6z"></path> <g> <path class="st1" d="M18.8,69.3v-1.7c-1,0-2-0.3-2.6-0.8l0.4-1.1c0.6,0.4,1.5,0.7,2.5,0.7c1.2,0,2-0.7,2-1.7c0-0.9-0.7-1.5-1.9-2 c-1.7-0.7-2.8-1.5-2.8-3c0-1.4,1-2.5,2.6-2.8v-1.7H20v1.7c1,0,1.7,0.3,2.2,0.6l-0.4,1.1c-0.4-0.2-1.1-0.6-2.2-0.6 c-1.3,0-1.8,0.8-1.8,1.5c0,0.9,0.6,1.3,2.1,2c1.8,0.7,2.7,1.6,2.7,3.1c0,1.4-0.9,2.6-2.7,2.9v1.8H18.8z"></path> </g> </g> <g> <path class="st1" d="M8.3,93.7c2.5-9,9-25.9,9.7-29c1.3-5.1,6-7.9,6-7.9s0.6-1.1,1.4-2.8c2-3.9,3.4-10.2,4.4-11.9 c3.1-5.3,12.9-9.8,18.8-10.8c0.6-0.1,1.2,0.2,1.5,0.9c0,0.1,0.1,0.2,0.1,0.3l0,0c0.3,0.8,0.2,1.7-0.3,2.4c-3.7,5.6-8.9,9-10.9,10 c-1.6,0.8-3.2,25-1.9,26.2c1.3,1.3,4.5,3.5,4.5,3.5s15.9-8.6,22.3-4.8c6.4,3.8-6.5,8.1-12.2,11.5c-4.9,2.9-26.8,31.2-26.8,31.2 s0.3-0.9,0,0C22.8,112,11.5,101.3,8.3,93.7z"></path> <path class="st6" d="M57.5,68.9c0,0-13.2,2.8-19.1,8.6"></path> <path class="st6" d="M8.3,93.7c2.5-9,9.3-25.9,10-29c1.3-5.1,6-7.9,6-7.9s0.6-1.1,1.4-2.8c2-3.9,3.4-10.2,4.4-11.9 C33.6,36,43.1,32.2,49,31.2c0.6-0.1,1.2,0.2,1.5,0.9c0,0.1,0.1,0.2,0.1,0.3l0,0c0.3,0.8,0.2,1.7-0.3,2.4c-3.7,5.6-8.9,9-10.9,10 c-1.6,0.8-3.2,25-1.9,26.2c1.3,1.3,4.5,3.5,4.5,3.5s15.9-8.6,22.3-4.8c6.4,3.8-6.5,8.1-12.2,11.5c-4.9,2.9-21.7,26-27.1,31.2"></path> </g> </svg> 