<?xml version="1.0" encoding="UTF-8"?> <!-- Generator: Adobe Illustrator 25.0.0, SVG Export Plug-In . SVG Version: 6.00 Build 0) --> <svg xmlns="http://www.w3.org/2000/svg" xmlns:xlink="http://www.w3.org/1999/xlink" version="1.1" id="Layer_1" x="0px" y="0px" viewBox="0 0 125 125" style="enable-background:new 0 0 125 125;" xml:space="preserve"> <style type="text/css"> .st0{fill:#E6E9ED;} .st1{fill:#FFFFFF;} .st2{fill:#35445A;} .st3{opacity:0.54;fill:#FFFFFF;} .st4{fill:#12B94D;} .st5{fill:none;stroke:#FFFFFF;stroke-width:2;stroke-linecap:round;stroke-linejoin:round;stroke-miterlimit:10;} .st6{fill:none;stroke:#35445A;stroke-width:2;stroke-linecap:round;stroke-linejoin:round;stroke-miterlimit:10;} </style> <circle class="st0" cx="62.5" cy="62.5" r="62.5"></circle> <path d="M76.9,11.1H45.3c-4,0-7.2,3.8-7.2,8.5v88.3c0,3.6,2.5,6.6,5.6,6.6h34.8c3.1,0,5.6-3,5.6-6.6V19.6 C84.1,14.9,80.9,11.1,76.9,11.1z M81.7,105.2c0,3.6-2.5,6.6-5.6,6.6H46.5c-3.1,0-5.6-3-5.6-6.6V20.1c0-3.6,2.5-6.6,5.6-6.6h3.6 c0.1,0,0.3,0.1,0.3,0.2c1,2,3,2.2,5.4,2.2h10.6c2.3,0,4.4-0.3,5.4-2.2c0.1-0.1,0.2-0.2,0.3-0.2h4c3.1,0,5.6,3,5.6,6.6V105.2z"></path> <path class="st1" d="M78.2,15.2H48.6c-3.1,0-5.6,3-5.6,6.6v84c0,3.6,2.5,6.6,5.6,6.6h29.5c3.1,0,5.6-3,5.6-6.6v-84 C83.8,18.2,81.3,15.2,78.2,15.2z"></path> <path class="st1" d="M83.9,42.3h-41V15.8c0-2,1.6-3.6,3.6-3.6h33.7c2,0,3.6,1.6,3.6,3.6V42.3z"></path> <g> <path class="st1" d="M84.2,42.2H42.4V15.8c0-2,1.6-3.6,3.6-3.6h34.5c2,0,3.7,1.6,3.7,3.6V42.2z"></path> </g> <path class="st2" d="M79,10.7H47.4c-4,0-7.2,3.8-7.2,8.5v88.3c0,3.6,2.5,6.6,5.6,6.6h34.8c3.1,0,5.6-3,5.6-6.6V19.2 C86.2,14.5,83,10.7,79,10.7z M83.8,104.8c0,3.6-2.5,6.6-5.6,6.6H48.6c-3.1,0-5.6-3-5.6-6.6V19.7c0-3.6,2.5-6.6,5.6-6.6h3.6 c0.1,0,0.3,0.1,0.3,0.2c1,2,3,2.2,5.4,2.2h10.6c2.3,0,4.4-0.3,5.4-2.2c0.1-0.1,0.2-0.2,0.3-0.2h4c3.1,0,5.6,3,5.6,6.6V104.8z"></path> <circle class="st3" cx="58.4" cy="52.4" r="6"></circle> <g> <path class="st4" d="M25.8,40.2v-1.9c-1.2,0-2.5-0.4-3.2-0.9l0.5-1.3c0.7,0.5,1.8,0.9,3,0.9c1.4,0,2.5-0.8,2.5-1.9 c0-1-0.8-1.7-2.3-2.2c-2.2-0.8-3.4-1.7-3.4-3.4c0-1.6,1.2-2.9,3.1-3.1v-2h1.3v1.9c1.3,0,2.1,0.4,2.7,0.7l-0.5,1.3 c-0.4-0.2-1.3-0.7-2.7-0.7c-1.6,0-2.2,0.9-2.2,1.7c0,0.9,0.8,1.5,2.6,2.1c2.1,0.8,3.2,1.7,3.2,3.5c0,1.4-1.1,3-3.3,3.3v2H25.8z"></path> </g> <g> <path class="st4" d="M97,32.3v-1.9c-1.2,0-2.5-0.4-3.2-0.9l0.5-1.3c0.7,0.5,1.8,0.9,3,0.9c1.4,0,2.5-0.8,2.5-1.9 c0-1-0.8-1.7-2.3-2.2c-2.2-0.8-3.4-1.7-3.4-3.4c0-1.6,1.2-2.9,3.1-3.1v-2h1.3v1.9c1.3,0,2.1,0.4,2.7,0.7l-0.5,1.3 c-0.4-0.2-1.3-0.7-2.7-0.7c-1.6,0-2.2,0.9-2.2,1.7c0,0.9,0.8,1.5,2.6,2.1c2.1,0.8,3.2,1.7,3.2,3.5c0,1.4-1.1,3-3.3,3.3v2H97z"></path> </g> <g> <path class="st4" d="M97.4,61v-1c-0.6,0-1.3-0.2-1.7-0.5l0.3-0.7c0.4,0.3,1,0.5,1.6,0.5c0.8,0,1.3-0.4,1.3-1c0-0.6-0.4-0.9-1.3-1.2 c-1.2-0.4-1.9-0.9-1.9-1.8c0-0.9,0.6-1.5,1.7-1.7v-1h0.7v1c0.7,0,1.1,0.2,1.5,0.4l-0.3,0.7c-0.2-0.1-0.7-0.4-1.4-0.4 c-0.9,0-1.2,0.5-1.2,0.9c0,0.5,0.4,0.8,1.4,1.2c1.1,0.4,1.7,0.9,1.7,1.9c0,0.8-0.6,1.6-1.8,1.8V61H97.4z"></path> </g> <g> <g> <path class="st2" d="M74.3,50.9c0-6.1-5-11.1-11.1-11.1S52,44.8,52,50.9c0,3.3,1.5,6.3,3.8,8.3c0.3-3.7,3.4-6.7,7.3-6.7 c3.9,0,7,3,7.3,6.8C72.8,57.4,74.3,54.3,74.3,50.9z"></path> <path class="st1" d="M63.1,52.6c-3.8,0-7,2.9-7.3,6.7c2,1.7,4.5,2.8,7.3,2.8c2.7,0,5.3-1,7.2-2.7C70.1,55.6,67,52.6,63.1,52.6z"></path> <circle class="st1" cx="63.2" cy="47.5" r="3.4"></circle> </g> <circle class="st4" cx="63.1" cy="77.9" r="6.7"></circle> <polyline class="st5" points="59.9,77.8 62.2,80.1 66,75.6 "></polyline> </g> </svg> 