<?xml version="1.0" encoding="UTF-8"?> <svg xmlns="http://www.w3.org/2000/svg" xmlns:xlink="http://www.w3.org/1999/xlink" version="1.1" id="Layer_1" x="0px" y="0px" viewBox="0 0 64 64" style="enable-background:new 0 0 64 64;" xml:space="preserve"> <style type="text/css"> .st0{fill:#DFE8F4;} .st1{fill:#CCD8E5;} .st2{fill:#12B94D;} .st3{fill:#0B8734;} .st4{fill:#0F216B;} .st5{fill:#FFFFFF;} </style> <path class="st0" d="M27.2,16.3H50c2,0,3.6,1.6,3.6,3.6v32.5c0,2-1.6,3.6-3.6,3.6H27.2c-2,0-3.6-1.6-3.6-3.6V19.9 C23.5,17.9,25.2,16.3,27.2,16.3z"></path> <path class="st1" d="M23.5,19.9v29.5h13.9c2.6,0,4.7-2.1,4.7-4.7V16.3H27.2C25.2,16.3,23.5,17.9,23.5,19.9 C23.5,19.9,23.5,19.9,23.5,19.9z"></path> <path class="st2" d="M14.1,8h22.8c2,0,3.6,1.6,3.6,3.6v32.5c0,2-1.6,3.6-3.6,3.6H14.1c-2,0-3.6-1.6-3.6-3.6V11.6 C10.4,9.6,12,8,14.1,8z"></path> <path class="st3" d="M27.2,16.3c-2,0-3.6,1.6-3.6,3.6c0,0,0,0,0,0v27.8h13.3c2,0,3.6-1.6,3.6-3.6c0,0,0,0,0,0V16.3H27.2z"></path> <path class="st4" d="M36.2,41.4c0,1.1-0.9,2.1-2.1,2.1s-2.1-0.9-2.1-2.1s0.9-2.1,2.1-2.1l0,0C35.3,39.3,36.2,40.3,36.2,41.4z"></path> <path class="st1" d="M47.7,51L47.7,51c0.4,0,0.7-0.3,0.7-0.7V32.2c0-0.4-0.3-0.7-0.7-0.7c0,0,0,0,0,0l0,0c-0.4,0-0.7,0.3-0.7,0.7 c0,0,0,0,0,0v18.1C46.9,50.7,47.2,51,47.7,51C47.6,51,47.6,51,47.7,51z"></path> <path class="st1" d="M44.5,40.3L44.5,40.3c0.4,0,0.7-0.3,0.7-0.7c0,0,0,0,0,0v-7.4c0-0.4-0.3-0.7-0.7-0.7l0,0l0,0 c-0.4,0-0.7,0.3-0.7,0.7c0,0,0,0,0,0v7.4C43.8,40,44.1,40.3,44.5,40.3z"></path> <path class="st1" d="M44.5,51L44.5,51c0.4,0,0.7-0.3,0.7-0.7c0,0,0,0,0,0v-7.4c0-0.4-0.3-0.7-0.7-0.7c0,0,0,0,0,0l0,0 c-0.4,0-0.7,0.3-0.7,0.7v7.4C43.8,50.7,44.1,51,44.5,51C44.5,51,44.5,51,44.5,51z"></path> <path class="st5" d="M32.2,22.3c0-3.7-3-6.8-6.7-6.8c-3.7,0-6.8,3-6.8,6.7c0,2.4,1.3,4.6,3.3,5.9v2.2c0,0.2,0.1,0.3,0.3,0.3h0.5 c0.2,0,0.3,0.1,0.3,0.3c0,0,0,0,0,0v0.6c0,0.2-0.1,0.3-0.3,0.3h-0.5c-0.2,0-0.3,0.1-0.3,0.3v0.6c0,0.2,0.1,0.3,0.3,0.3l0,0h0.5 c0.2,0,0.3,0.1,0.3,0.3c0,0,0,0,0,0V34c0,0.2-0.1,0.3-0.3,0.3l0,0h-0.5c-0.2,0-0.3,0.1-0.3,0.3c0,0,0,0,0,0v3.2 c0,0.3,0.2,0.5,0.4,0.7L25,40c0.2,0.1,0.5,0.1,0.8,0l2.7-1.5c0.2-0.1,0.4-0.4,0.4-0.7v-9.7C30.9,26.9,32.2,24.7,32.2,22.3z"></path> <path class="st0" d="M23.5,19.9v19.3l1.5,0.9c0.2,0.1,0.5,0.1,0.8,0l2.7-1.5c0.2-0.1,0.4-0.4,0.4-0.7v-9.7c3.2-1.9,4.2-6.1,2.3-9.2 c-0.7-1.1-1.7-2-2.8-2.6h-1.2C25.2,16.3,23.5,17.9,23.5,19.9C23.5,19.9,23.5,19.9,23.5,19.9z"></path> <path class="st0" d="M22,28.1v1.4c0.3,0,0.5,0,0.8,0c0.8,0,1.6-0.2,2.4-0.5C24.1,29,23,28.7,22,28.1z"></path> <circle class="st4" cx="25.4" cy="20.7" r="1.6"></circle> </svg> 