<?xml version="1.0" encoding="UTF-8"?> <svg xmlns="http://www.w3.org/2000/svg" xmlns:xlink="http://www.w3.org/1999/xlink" version="1.1" id="Layer_1" x="0px" y="0px" viewBox="0 0 64 64" style="enable-background:new 0 0 64 64;" xml:space="preserve"> <style type="text/css"> .st0{fill:#12B94D;} .st1{fill:#0F216B;} .st2{fill:#CCD8E5;} </style> <circle class="st0" cx="32" cy="32" r="24"></circle> <path class="st1" d="M40.8,34.5H32v-5.1h8.8c1.4,0,2.5,1.1,2.5,2.5v0l0,0C43.3,33.4,42.2,34.5,40.8,34.5 C40.8,34.5,40.8,34.5,40.8,34.5z"></path> <path class="st2" d="M32,15.2L32,15.2c0.7,0,1.3,0.6,1.3,1.2v13.7c0,0.7-0.6,1.2-1.2,1.2h0c-0.7,0-1.2-0.6-1.2-1.2V16.5 C30.7,15.8,31.3,15.2,32,15.2z"></path> <circle class="st1" cx="32" cy="32" r="3.1"></circle> </svg> 