<?xml version="1.0" encoding="UTF-8"?> <svg xmlns="http://www.w3.org/2000/svg" xmlns:xlink="http://www.w3.org/1999/xlink" version="1.1" id="Layer_1" x="0px" y="0px" viewBox="0 0 64 64" style="enable-background:new 0 0 64 64;" xml:space="preserve"> <style type="text/css"> .st0{fill:#0F216B;} .st1{fill:#DFE8F4;} .st2{fill:#FFFFFF;} .st3{fill:#12B94D;} </style> <path class="st0" d="M44.8,24.8v-0.2c0.1-6.9-5.3-12.7-12.2-13.1c-7.1-0.3-13.1,5.1-13.4,12.2c0,0.2,0,0.4,0,0.6v0.5 c0,2.3-0.5,4.6-1.5,6.6c-0.3,0.5-0.4,1-0.5,1.5c0,2.1,6.6,3.8,14.7,3.8s14.7-1.7,14.7-3.8c-0.1-0.5-0.2-1-0.5-1.5 C45.3,29.3,44.8,27.1,44.8,24.8z"></path> <path class="st1" d="M41.3,29.2V25c0-3.3-1.8-6.4-4.6-8l0,0c-2.9-1.7-6.4-1.7-9.3,0l0,0c-2.9,1.6-4.6,4.7-4.6,8v4.1 c0,2.9,1.6,5.6,4.1,7l1.2,0.7c2.5,1.4,5.5,1.4,7.9,0l1.2-0.7C39.7,34.7,41.2,32.1,41.3,29.2z"></path> <path class="st2" d="M28.9,31.1c-0.2,0-0.3,0.1-0.3,0.3c0,0,0,0,0,0.1c0.4,1.9,2.2,3.1,4,2.7c1.3-0.3,2.4-1.3,2.7-2.7 c0-0.2-0.1-0.3-0.2-0.3c0,0,0,0-0.1,0H28.9z"></path> <path class="st3" d="M51.4,56H12.6l1.2-6.2c0.9-4.5,4.9-7.8,9.6-7.8h17.2c4.6,0,8.6,3.3,9.5,7.8L51.4,56z"></path> <path class="st0" d="M41.7,24.1L38.8,15H25.2l-3,9.1h0.1c0,0.1-0.1,0.1-0.1,0.2c0,0.9,4.4,1.6,9.8,1.6s9.8-0.7,9.8-1.6 C41.7,24.2,41.7,24.2,41.7,24.1z"></path> <path class="st0" d="M40.1,10.3c0-0.7-0.4-1.3-1.1-1.5C36.7,8.3,34.4,8,32,8c-2.4,0-4.7,0.3-7,0.9c-0.7,0.2-1.1,0.8-1.1,1.5v4.9 c0,0.7,0.5,1.3,1.1,1.5c2.3,0.6,4.6,0.9,7,0.9c2.4,0,4.7-0.3,7-0.9c0.7-0.2,1.1-0.8,1.1-1.5L40.1,10.3z"></path> <path class="st3" d="M23.9,13.9v0.6c2.6,0.8,5.3,1.2,8.1,1.2c2.7,0,5.5-0.4,8.1-1.2v-0.6c-2.6,0.8-5.3,1.2-8.1,1.2 C29.3,15.2,26.5,14.8,23.9,13.9z"></path> <path class="st3" d="M23.9,12.6v0.6c2.6,0.8,5.3,1.2,8.1,1.2c2.7,0,5.5-0.4,8.1-1.2v-0.6c-2.6,0.8-5.3,1.2-8.1,1.2 C29.3,13.8,26.5,13.4,23.9,12.6z"></path> <path class="st3" d="M26.5,39.9h11.1c0.7,0,1.3,0.6,1.3,1.3v4.6l0,0H25.2l0,0v-4.6C25.2,40.5,25.8,39.9,26.5,39.9z"></path> <path class="st0" d="M51.4,56l-1.2-6.2c-0.9-4.5-4.9-7.8-9.5-7.8h-1.8v3c0,2.2-1.4,4.1-3.4,4.8l0,0c-2,0.7-3.4,2.6-3.4,4.8V56H51.4z "></path> <circle class="st0" cx="36.1" cy="43" r="0.8"></circle> <circle class="st0" cx="36.1" cy="46.2" r="0.8"></circle> </svg> 